<svg xmlns="http://www.w3.org/2000/svg" viewBox="0 0 64 64"><g id="HOUSE-35" data-name="HOUSE"><polygon points="35.72 10.61 35.72 12.25 36.96 12.25 35.72 10.61"/><polygon points="34.27 8.66 32.97 6.93 32.97 12.25 34.27 12.25 34.27 8.66"/><rect x="35.72" y="17.75" width="2.04" height="2.5"/><rect x="35.72" y="21.75" width="2.04" height="2.5"/><rect x="35.72" y="13.75" width="2.04" height="2.5"/><rect x="35.72" y="29.75" width="2.04" height="2.5"/><rect x="35.72" y="41.75" width="2.04" height="2.5"/><rect x="35.72" y="37.75" width="2.04" height="2.5"/><rect x="35.72" y="45.75" width="2.04" height="2.5"/><rect x="35.72" y="25.75" width="2.04" height="2.5"/><rect x="35.72" y="33.75" width="2.04" height="2.5"/><path d="M31,6.93,16.48,26.34V41H31ZM28.85,36a.74.74,0,0,1-.73.75H19.39a.74.74,0,0,1-.72-.75V28a.74.74,0,0,1,.72-.75h8.73a.74.74,0,0,1,.73.75Z"/><path d="M57.75,51V49.81a3.6,3.6,0,0,0,2.86-3.52c0-.1-.84-10-3.61-10s-3.61,9.94-3.61,10a3.6,3.6,0,0,0,2.86,3.52V51H47.52V49.75H46.21V51H44.76V49.75h-2V51H41.26V49.75h-2V51H37.77V49.75H35.72V51H34.27V49.75H16.48V51H7.75V49.81a3.6,3.6,0,0,0,2.86-3.52c0-.1-.84-10-3.61-10s-3.61,9.94-3.61,10a3.6,3.6,0,0,0,2.86,3.52V51H0v2H64V51Z"/><rect x="32.97" y="21.75" width="1.3" height="2.5"/><rect x="32.97" y="17.75" width="1.3" height="2.5"/><rect x="32.97" y="13.75" width="1.3" height="2.5"/><rect x="32.97" y="25.75" width="1.3" height="2.5"/><rect x="32.97" y="33.75" width="1.3" height="2.5"/><rect x="16.48" y="45.75" width="17.79" height="2.5"/><path d="M34.27,41.75H33A1,1,0,0,1,32,43H16.48v1.25H34.27Z"/><rect x="32.97" y="37.75" width="1.3" height="2.5"/><rect x="20.12" y="28.75" width="7.27" height="6.5"/><rect x="32.97" y="29.75" width="1.3" height="2.5"/><rect x="42.72" y="29.75" width="2.04" height="2.5"/><rect x="42.72" y="37.75" width="2.04" height="2.5"/><rect x="46.21" y="29.75" width="1.3" height="2.5"/><rect x="46.21" y="37.75" width="1.3" height="2.5"/><rect x="42.72" y="41.75" width="2.04" height="2.5"/><rect x="42.72" y="45.75" width="2.04" height="2.5"/><rect x="46.21" y="33.75" width="1.3" height="2.5"/><rect x="46.21" y="41.75" width="1.3" height="2.5"/><polygon points="41.26 18 41.08 17.75 39.22 17.75 39.22 20.25 41.26 20.25 41.26 18"/><rect x="46.21" y="45.75" width="1.3" height="2.5"/><polygon points="47.52 26.34 47.07 25.75 46.22 25.75 46.22 28.25 47.52 28.25 47.52 26.34"/><rect x="39.22" y="37.75" width="2.04" height="2.5"/><rect x="39.22" y="29.75" width="2.04" height="2.5"/><rect x="39.22" y="33.75" width="2.04" height="2.5"/><rect x="39.22" y="25.75" width="2.04" height="2.5"/><polygon points="39.22 15.28 39.22 16.25 39.95 16.25 39.22 15.28"/><rect x="39.22" y="21.75" width="2.04" height="2.5"/><rect x="39.22" y="41.75" width="2.04" height="2.5"/><rect x="42.72" y="33.75" width="2.04" height="2.5"/><polygon points="44.76 22.66 44.08 21.75 42.72 21.75 42.72 24.25 44.76 24.25 44.76 22.66"/><rect x="42.72" y="25.75" width="2.04" height="2.5"/><rect x="39.22" y="45.75" width="2.04" height="2.5"/></g></svg>