<?xml version="1.0" encoding="UTF-8"?>
<!DOCTYPE svg PUBLIC "-//W3C//DTD SVG 1.1//EN" "http://www.w3.org/Graphics/SVG/1.1/DTD/svg11.dtd">
<!-- Creator: CorelDRAW -->
<svg xmlns="http://www.w3.org/2000/svg" xml:space="preserve" width="512px" height="512px" version="1.1" style="shape-rendering:geometricPrecision; text-rendering:geometricPrecision; image-rendering:optimizeQuality; fill-rule:evenodd; clip-rule:evenodd"
viewBox="0 0 512 512"
 xmlns:xlink="http://www.w3.org/1999/xlink">
 <defs>
  <style type="text/css">
   <![CDATA[
    .fil0 {fill:black}
   ]]>
  </style>
 </defs>
 <g id="Layer_x0020_1">
  <metadata id="CorelCorpID_0Corel-Layer"/>
  <path class="fil0" d="M327 277c-36,0 -68,-15 -90,-40 24,-24 56,-38 90,-38 34,0 66,14 89,38 -22,25 -54,40 -89,40zm0 -113c-26,0 -47,-20 -47,-46 0,-26 21,-46 47,-46 25,0 46,20 46,46 0,26 -20,46 -46,46zm0 -78c-18,0 -32,14 -32,32 0,18 14,32 32,32 17,0 32,-14 32,-32 0,-17 -15,-32 -32,-32zm-100 137c-13,-19 -20,-41 -20,-66 0,-66 54,-120 120,-120 66,0 119,54 119,120 0,24 -7,47 -19,66 -27,-26 -63,-41 -100,-41 -38,0 -74,15 -100,41z"/>
  <g id="_350132136">
   <g>
    <path class="fil0" d="M108 318c2,-1 4,-2 6,-3 33,-16 56,-27 100,-14l83 27c16,5 22,20 20,32 -1,3 -2,6 -3,8 34,-7 65,-25 104,-49 12,-8 24,-15 37,-23 10,-5 21,-7 31,-3 9,3 16,9 21,17 5,9 6,18 4,27 -2,11 -8,19 -18,25 -193,111 -250,100 -300,91 -23,-5 -45,-9 -81,0 0,0 0,-1 0,-1l0 -118c0,-6 -2,-11 -4,-16zm22 116c1,0 1,0 2,0l-2 0z"/>
   </g>
   <path class="fil0" d="M79 471l-60 0c-11,0 -19,-9 -19,-19l0 -118c0,-11 9,-20 19,-20l60 0c10,0 19,9 19,20l0 118c-1,11 -9,19 -19,19zm-30 -83c-12,0 -23,-10 -23,-23 0,-12 10,-23 23,-23 13,0 23,11 23,23 0,13 -11,23 -23,23zm0 -31c-5,0 -8,4 -8,8 0,5 3,8 8,8 5,0 8,-3 8,-8 0,-4 -3,-8 -8,-8z"/>
  </g>
 </g>
</svg>
