<?xml version="1.0" encoding="UTF-8"?>
<!DOCTYPE svg PUBLIC "-//W3C//DTD SVG 1.1//EN" "http://www.w3.org/Graphics/SVG/1.1/DTD/svg11.dtd">
<!-- Creator: CorelDRAW -->
<svg xmlns="http://www.w3.org/2000/svg" xml:space="preserve" width="1.70666in" height="1.70666in" version="1.1" style="shape-rendering:geometricPrecision; text-rendering:geometricPrecision; image-rendering:optimizeQuality; fill-rule:evenodd; clip-rule:evenodd"
viewBox="0 0 1706.66 1706.66"
 xmlns:xlink="http://www.w3.org/1999/xlink"
 xmlns:xodm="http://www.corel.com/coreldraw/odm/2003">
 <defs>
  <style type="text/css">
   <![CDATA[
    .fil0 {fill:black}
   ]]>
  </style>
 </defs>
 <g id="Layer_x0020_1">
  <metadata id="CorelCorpID_0Corel-Layer"/>
  <path class="fil0" d="M317.04 676.15c-71.52,0 -129.69,-58.18 -129.69,-129.69 0,-71.52 58.18,-129.69 129.69,-129.69 105.42,0 162.44,117.48 109.97,198.43 -22.54,34.77 -68.1,60.95 -109.97,60.95zm0 -65.12c-84.96,0 -84.95,-129.13 0,-129.13 84.98,0 84.98,129.13 0,129.13z"/>
  <path class="fil0" d="M1686.44 1350.57l-904.37 0c-11.11,0 -20,-9.02 -20,-20l0 -954.49c0,-17.92 22.02,-26.96 34.57,-13.75l904.37 954.35c12.07,12.72 2.93,33.88 -14.58,33.88zm-289.79 -155.38l-492.38 0c-10.97,0 -20,-9.02 -20,-20l0 -519.59c0,-17.71 21.85,-27.17 34.57,-13.74l492.38 519.59c12.01,12.67 3.17,33.74 -14.58,33.74zm-495.85 138.72c-27.07,0 -20,-37.65 -20,-69.98 0,-26.29 40,-26.29 40,0 0,32.57 7.08,69.98 -20,69.98zm608.46 0c-27.07,0 -20,-37.64 -20,-69.98 0,-26.29 39.99,-26.3 39.99,0 0,32.57 7.08,69.98 -20,69.98zm-152.05 0c-27.07,0 -20,-37.65 -20,-69.98 0,-26.29 40,-26.29 40,0 0,32.35 7.07,69.98 -20,69.98zm-152.18 0c-27.07,0 -20,-37.64 -20,-69.98 0,-26.29 40,-26.3 40,0 0,32.58 7.08,69.98 -20,69.98zm-152.05 0c-27.07,0 -20,-37.65 -20,-69.98 0,-26.29 40,-26.29 40,0 0,32.33 7.07,69.98 -20,69.98z"/>
  <path class="fil0" d="M133.06 1298.78l-89.01 -23.19c-10.69,-2.92 -16.94,-13.88 -14.17,-24.44l174.68 -651.79c4.58,-16.93 27.1,-20.05 36.24,-5.41 29.5,47.2 64.83,32.66 76.23,50.13 3.06,4.72 4.02,10.56 2.63,16.11l-167.04 623.88c-2.41,8.97 -10.49,14.71 -19.58,14.71z"/>
  <path class="fil0" d="M58.08 1411.25c-12.94,0 -22.66,-12.48 -19.3,-25.13l33.19 -123.72c6.92,-25.59 45.3,-14.92 38.6,10.27l-33.19 123.72c-2.36,8.89 -10.55,14.86 -19.3,14.86z"/>
  <path class="fil0" d="M287.61 460.79c-11.08,0 -20,-8.87 -20,-19.99l0 -106.36c0,-52.33 98.91,-52.2 98.87,-0l-0.14 106.36c-0.01,13.22 -12.72,22.64 -25.27,19.16 -28.74,-7.96 -44.92,0.83 -53.46,0.83z"/>
  <path class="fil0" d="M506.86 1298.78c-8.75,0 -16.66,-5.69 -19.17,-14.44l-178.15 -623.87c-3.26,-11.63 4.42,-23.54 16.38,-25.27 64.31,-9.29 60.59,-54.64 87.34,-50.55 7.78,1.25 14.02,6.8 16.11,14.3l186.07 651.79c3.18,11.06 -3.62,22.21 -14.44,25l-94.14 23.04z"/>
  <path class="fil0" d="M586.84 1411.25c-8.75,0 -16.66,-5.69 -19.16,-14.44l-35.27 -123.72c-7.25,-25.22 31.2,-36.41 38.46,-10.97l35.27 123.72c3.58,12.45 -5.47,25.41 -19.3,25.41z"/>
  <path class="fil0" d="M613.91 987.61l-99.83 0c-26.33,0 -26.33,-40 0,-40l99.83 0c26.39,0 26.24,40 0,40zm-195.78 0l-201.76 0c-26.33,0 -26.33,-40 0,-40l201.76 0c26.39,0 26.23,40 0,40zm-291.46 0l-106.5 0c-26.33,0 -26.33,-40 0,-40l106.5 0c26.39,0 26.24,40 0,40z"/>
  <path class="fil0" d="M317.04 1074.52c-11.11,0 -20,-9.02 -20,-20l0.01 -202.17c0,-26.35 39.99,-26.36 39.99,0l0 202.17c-0,11.11 -9.03,20 -20,20z"/>
 </g>
</svg>
